G04*
G04 #@! TF.GenerationSoftware,Altium Limited,Altium Designer,24.2.2 (26)*
G04*
G04 Layer_Physical_Order=1*
G04 Layer_Color=255*
%FSLAX44Y44*%
%MOMM*%
G71*
G04*
G04 #@! TF.SameCoordinates,64B0A2ED-4F9C-458F-A6B1-0A69A07A9492*
G04*
G04*
G04 #@! TF.FilePolarity,Positive*
G04*
G01*
G75*
%ADD14C,0.2540*%
%ADD15C,1.3716*%
%ADD16R,1.3716X1.3716*%
%ADD19R,1.3716X1.3716*%
%ADD20C,1.3970*%
%ADD21R,1.3970X1.3970*%
%ADD25C,1.5000*%
%ADD26C,1.5000*%
%ADD27R,1.5000X1.5000*%
%ADD28R,1.2000X1.2000*%
%ADD29C,1.2000*%
%ADD30C,1.2700*%
D14*
X87312Y307022D02*
X88900Y308610D01*
X82550Y309880D02*
X83820Y311150D01*
X83185Y337185D02*
X83820Y336550D01*
X82550Y377190D02*
X83185Y376555D01*
X82550Y265430D02*
X83820Y264160D01*
X121346Y123190D02*
X121981Y123825D01*
X167259Y376555D02*
X167894Y375920D01*
X121981Y197485D02*
X122616Y198120D01*
D15*
X83820Y336550D02*
D03*
X167894Y375920D02*
D03*
D16*
X83820Y311150D02*
D03*
D19*
X281940Y375920D02*
D03*
D20*
X122616Y198120D02*
D03*
X121346Y123190D02*
D03*
D21*
X181610Y198120D02*
D03*
X180340Y123190D02*
D03*
D25*
X473710Y210820D02*
Y393700D01*
X434340Y171450D02*
X473710Y210820D01*
X281940Y375920D02*
X283210Y374650D01*
X358140D01*
X82550Y265430D02*
X109220Y238760D01*
X293370D02*
X335280Y196850D01*
X109220Y238760D02*
X293370D01*
X83820Y210820D02*
Y264160D01*
X358140Y196850D02*
X408940D01*
X335280D02*
X358140D01*
X265430Y185690D02*
X279670Y171450D01*
X358140D01*
X265430Y136890D02*
X274590Y146050D01*
X358140D01*
X167894Y385064D02*
X196850Y414020D01*
X453390D01*
X167894Y375920D02*
Y385064D01*
X83185Y376555D02*
X167259D01*
X453390Y414020D02*
X473710Y393700D01*
X82550Y265430D02*
Y309880D01*
X83185Y337185D02*
Y376555D01*
X96520Y198120D02*
X122616D01*
X83820Y210820D02*
X96520Y198120D01*
X121981Y123825D02*
Y197485D01*
X180340Y123190D02*
X251730D01*
X265430Y136890D01*
X181610Y198120D02*
X253000D01*
X265430Y185690D01*
X408940Y196850D02*
X434340Y222250D01*
X167894Y302006D02*
Y375920D01*
Y302006D02*
X185420Y284480D01*
X295910D01*
X358140Y222250D01*
D26*
X434340Y44450D02*
D03*
Y69850D02*
D03*
Y95250D02*
D03*
Y120650D02*
D03*
Y146050D02*
D03*
Y171450D02*
D03*
Y196850D02*
D03*
Y222250D02*
D03*
Y247650D02*
D03*
Y273050D02*
D03*
Y298450D02*
D03*
Y323850D02*
D03*
Y349250D02*
D03*
Y374650D02*
D03*
X358140Y44450D02*
D03*
Y69850D02*
D03*
Y95250D02*
D03*
Y120650D02*
D03*
Y146050D02*
D03*
Y171450D02*
D03*
Y196850D02*
D03*
Y222250D02*
D03*
Y247650D02*
D03*
Y273050D02*
D03*
Y298450D02*
D03*
Y323850D02*
D03*
Y349250D02*
D03*
D27*
Y374650D02*
D03*
D28*
X265430Y185690D02*
D03*
D29*
Y136890D02*
D03*
D30*
X82550Y377190D02*
D03*
Y265430D02*
D03*
M02*
