G04*
G04 #@! TF.GenerationSoftware,Altium Limited,Altium Designer,24.2.2 (26)*
G04*
G04 Layer_Color=65535*
%FSLAX44Y44*%
%MOMM*%
G71*
G04*
G04 #@! TF.SameCoordinates,64B0A2ED-4F9C-458F-A6B1-0A69A07A9492*
G04*
G04*
G04 #@! TF.FilePolarity,Positive*
G04*
G01*
G75*
%ADD10C,0.1524*%
%ADD11C,0.6000*%
%ADD12C,0.2500*%
%ADD13C,0.2000*%
%ADD14C,0.2540*%
D10*
X119126Y323850D02*
G03*
X119126Y323850I-35306J0D01*
G01*
X218788Y198120D02*
G03*
X218788Y198120I-762J0D01*
G01*
X217518Y123190D02*
G03*
X217518Y123190I-762J0D01*
G01*
X77470Y280924D02*
X90170D01*
X83820Y274574D02*
Y287274D01*
X259207Y362204D02*
Y389636D01*
X190627Y362204D02*
X259207D01*
X190627D02*
Y389636D01*
X259207D01*
X210406Y175387D02*
Y220853D01*
X93820Y175387D02*
Y220853D01*
X210406D01*
X93820Y175387D02*
X210406D01*
X209136Y100457D02*
Y145923D01*
X92550Y100457D02*
Y145923D01*
X209136D01*
X92550Y100457D02*
X209136D01*
D11*
X382740Y376550D02*
G03*
X382740Y376550I-3000J0D01*
G01*
D12*
X359390Y387650D02*
G03*
X359390Y387650I-1250J0D01*
G01*
X266680Y224540D02*
G03*
X266680Y224540I-1250J0D01*
G01*
D13*
X389890Y386550D02*
G03*
X402590Y386550I6350J0D01*
G01*
X280430Y104540D02*
G03*
X288680Y112790I0J8250D01*
G01*
X242180Y112790D02*
G03*
X250430Y104540I8250J-0D01*
G01*
X250430Y218040D02*
G03*
X242180Y209790I0J-8250D01*
G01*
X288680D02*
G03*
X280430Y218040I-8250J0D01*
G01*
X369740Y32550D02*
X422740D01*
X402590Y386550D02*
X422740D01*
X369740D02*
X389890D01*
X422740Y32550D02*
Y386550D01*
X369740Y32550D02*
Y386550D01*
X250430Y218040D02*
X250430D01*
X280430D01*
X250430Y104540D02*
X280430D01*
X288680Y112790D02*
Y209790D01*
X242180Y112790D02*
Y209790D01*
D14*
X83392Y71117D02*
X69850D01*
Y50803D01*
X83392D01*
X69850Y60960D02*
X76621D01*
X90163Y50803D02*
X96935D01*
X93549D01*
Y71117D01*
X90163D01*
X117248Y50803D02*
X110477D01*
X107091Y54189D01*
Y60960D01*
X110477Y64346D01*
X117248D01*
X120634Y60960D01*
Y57574D01*
X107091D01*
X140947Y64346D02*
X130790D01*
X127405Y60960D01*
Y54189D01*
X130790Y50803D01*
X140947D01*
X151104Y67731D02*
Y64346D01*
X147718D01*
X154489D01*
X151104D01*
Y54189D01*
X154489Y50803D01*
X164646Y64346D02*
Y50803D01*
Y57574D01*
X168032Y60960D01*
X171417Y64346D01*
X174803D01*
X188345Y50803D02*
X195116D01*
X198502Y54189D01*
Y60960D01*
X195116Y64346D01*
X188345D01*
X184959Y60960D01*
Y54189D01*
X188345Y50803D01*
X225586Y71117D02*
Y50803D01*
X235743D01*
X239128Y54189D01*
Y67731D01*
X235743Y71117D01*
X225586D01*
X245900Y50803D02*
X252671D01*
X249285D01*
Y64346D01*
X245900D01*
X272984Y50803D02*
X266213D01*
X262827Y54189D01*
Y60960D01*
X266213Y64346D01*
X272984D01*
X276370Y60960D01*
Y57574D01*
X262827D01*
X283141Y64346D02*
Y54189D01*
X286527Y50803D01*
X296683D01*
Y64346D01*
X303454Y50803D02*
X313611D01*
X316997Y54189D01*
X313611Y57574D01*
X306840D01*
X303454Y60960D01*
X306840Y64346D01*
X316997D01*
X194310Y346707D02*
X204467D01*
X199388Y351786D02*
Y341629D01*
X240015Y346707D02*
X250172D01*
X52070Y378458D02*
X58841D01*
X55456Y381844D02*
Y375073D01*
X68998Y383537D02*
X62227D01*
Y378458D01*
X65612Y380151D01*
X67305D01*
X68998Y378458D01*
Y375073D01*
X67305Y373380D01*
X63920D01*
X62227Y375073D01*
X51221Y270084D02*
X49528Y271777D01*
X46143D01*
X44450Y270084D01*
Y263313D01*
X46143Y261620D01*
X49528D01*
X51221Y263313D01*
Y266698D01*
X47836D01*
X54607Y261620D02*
Y271777D01*
X61378Y261620D01*
Y271777D01*
X64763D02*
Y261620D01*
X69842D01*
X71535Y263313D01*
Y270084D01*
X69842Y271777D01*
X64763D01*
X210823Y380998D02*
X226058D01*
Y373381D01*
X223518Y370842D01*
X218440D01*
X215901Y373381D01*
Y380998D01*
Y375920D02*
X210823Y370842D01*
X463552Y167619D02*
X473708D01*
X478787Y162540D01*
X473708Y157462D01*
X463552D01*
X471169D01*
Y167619D01*
X478787Y152384D02*
Y142227D01*
Y147305D01*
X463552D01*
Y137149D02*
X473708D01*
Y134609D01*
X471169Y132070D01*
X463552D01*
X471169D01*
X473708Y129531D01*
X471169Y126992D01*
X463552D01*
Y114296D02*
Y119374D01*
X466091Y121913D01*
X471169D01*
X473708Y119374D01*
Y114296D01*
X471169Y111757D01*
X468630D01*
Y121913D01*
X458473Y101600D02*
Y99061D01*
X461012Y96522D01*
X473708D01*
Y104139D01*
X471169Y106678D01*
X466091D01*
X463552Y104139D01*
Y96522D01*
X473708Y88904D02*
Y83826D01*
X471169Y81287D01*
X463552D01*
Y88904D01*
X466091Y91443D01*
X468630Y88904D01*
Y81287D01*
X476247Y76208D02*
X478787Y73669D01*
Y68591D01*
X476247Y66052D01*
X473708D01*
X471169Y68591D01*
Y71130D01*
Y68591D01*
X468630Y66052D01*
X466091D01*
X463552Y68591D01*
Y73669D01*
X466091Y76208D01*
X463552Y50816D02*
Y60973D01*
X473708Y50816D01*
X476247D01*
X478787Y53356D01*
Y58434D01*
X476247Y60973D01*
Y45738D02*
X478787Y43199D01*
Y38121D01*
X476247Y35581D01*
X473708D01*
X471169Y38121D01*
X468630Y35581D01*
X466091D01*
X463552Y38121D01*
Y43199D01*
X466091Y45738D01*
X468630D01*
X471169Y43199D01*
X473708Y45738D01*
X476247D01*
X471169Y43199D02*
Y38121D01*
X317498Y195568D02*
X320037Y198107D01*
Y203186D01*
X317498Y205725D01*
X307341D01*
X304802Y203186D01*
Y198107D01*
X307341Y195568D01*
X314958Y190490D02*
X304802D01*
X309880D01*
X312419Y187950D01*
X314958Y185411D01*
Y182872D01*
Y175255D02*
X307341D01*
X304802Y172715D01*
Y165098D01*
X302262D01*
X299723Y167637D01*
Y170176D01*
X304802Y165098D02*
X314958D01*
X304802Y160020D02*
Y152402D01*
X307341Y149863D01*
X309880Y152402D01*
Y157480D01*
X312419Y160020D01*
X314958Y157480D01*
Y149863D01*
X317498Y142245D02*
X314958D01*
Y144784D01*
Y139706D01*
Y142245D01*
X307341D01*
X304802Y139706D01*
X314958Y129549D02*
Y124471D01*
X312419Y121932D01*
X304802D01*
Y129549D01*
X307341Y132089D01*
X309880Y129549D01*
Y121932D01*
X304802Y116854D02*
Y111775D01*
Y114314D01*
X320037D01*
Y116854D01*
X81278Y121919D02*
X83818Y124458D01*
Y129537D01*
X81278Y132076D01*
X71122D01*
X68583Y129537D01*
Y124458D01*
X71122Y121919D01*
X68583Y106684D02*
Y116841D01*
X78739Y106684D01*
X81278D01*
X83818Y109223D01*
Y114302D01*
X81278Y116841D01*
Y194310D02*
X83818Y196849D01*
Y201928D01*
X81278Y204467D01*
X71122D01*
X68583Y201928D01*
Y196849D01*
X71122Y194310D01*
X68583Y189232D02*
Y184153D01*
Y186692D01*
X83818D01*
X81278Y189232D01*
X29212Y323851D02*
X26672Y321312D01*
Y316233D01*
X29212Y313694D01*
X39368D01*
X41908Y316233D01*
Y321312D01*
X39368Y323851D01*
X29212Y328929D02*
X26672Y331468D01*
Y336547D01*
X29212Y339086D01*
X39368D01*
X41908Y336547D01*
Y331468D01*
X39368Y328929D01*
X29212D01*
M02*
