G04*
G04 #@! TF.GenerationSoftware,Altium Limited,Altium Designer,24.2.2 (26)*
G04*
G04 Layer_Color=16711935*
%FSLAX44Y44*%
%MOMM*%
G71*
G04*
G04 #@! TF.SameCoordinates,64B0A2ED-4F9C-458F-A6B1-0A69A07A9492*
G04*
G04*
G04 #@! TF.FilePolarity,Negative*
G04*
G01*
G75*
%ADD15C,1.3716*%
%ADD16R,1.3716X1.3716*%
%ADD17C,1.7032*%
%ADD18R,1.7032X1.7032*%
%ADD19R,1.3716X1.3716*%
%ADD20C,1.3970*%
%ADD21R,1.3970X1.3970*%
%ADD22R,1.4032X1.4032*%
%ADD23C,1.4032*%
%ADD24C,1.4732*%
D15*
X83820Y336550D02*
D03*
X167894Y375920D02*
D03*
D16*
X83820Y311150D02*
D03*
D17*
X434340Y44450D02*
D03*
Y69850D02*
D03*
Y95250D02*
D03*
Y120650D02*
D03*
Y146050D02*
D03*
Y171450D02*
D03*
Y196850D02*
D03*
Y222250D02*
D03*
Y247650D02*
D03*
Y273050D02*
D03*
Y298450D02*
D03*
Y323850D02*
D03*
Y349250D02*
D03*
Y374650D02*
D03*
X358140Y44450D02*
D03*
Y69850D02*
D03*
Y95250D02*
D03*
Y120650D02*
D03*
Y146050D02*
D03*
Y171450D02*
D03*
Y196850D02*
D03*
Y222250D02*
D03*
Y247650D02*
D03*
Y273050D02*
D03*
Y298450D02*
D03*
Y323850D02*
D03*
Y349250D02*
D03*
D18*
Y374650D02*
D03*
D19*
X281940Y375920D02*
D03*
D20*
X122616Y198120D02*
D03*
X121346Y123190D02*
D03*
D21*
X181610Y198120D02*
D03*
X180340Y123190D02*
D03*
D22*
X265430Y185690D02*
D03*
D23*
Y136890D02*
D03*
D24*
X82550Y377190D02*
D03*
Y265430D02*
D03*
M02*
