M48
;Layer_Color=9474304
;FILE_FORMAT=4:4
METRIC,LZ
;TYPE=PLATED
T01F00S00C0.7000
T02F00S00C0.7112
T03F00S00C0.8636
T04F00S00C0.8890
T05F00S00C0.9000
%
T01
X0026543Y0013689
Y0018569
T02
X0008255Y0026543
Y0037719
T03
X0008382Y0031115
Y0033655
X00167894Y0037592
X0028194
T04
X00121346Y0012319
X0018034
X0018161Y0019812
X00122616
T05
X0035814Y0004445
Y0006985
Y0009525
Y0012065
Y0014605
Y0017145
Y0019685
Y0022225
Y0024765
Y0027305
Y0029845
Y0032385
X0043434
Y0029845
Y0027305
Y0024765
Y0022225
Y0019685
Y0017145
Y0014605
Y0012065
Y0009525
Y0006985
Y0004445
Y0034925
Y0037465
X0035814
Y0034925
M30
